<svg width="112" height="81" viewBox="0 0 112 81" fill="none" xmlns="http://www.w3.org/2000/svg">
<path d="M96.0127 77.1012H97.2506V78.4434L96.5349 80.0204H96.0127V77.1012Z" fill="#1A2F6B"/>
<path d="M0.299797 78.4123C0.0999324 78.1984 0 77.897 0 77.5044V72.4215C0 72.0254 0.103156 71.7135 0.309468 71.4891C0.51578 71.2648 0.802683 71.1526 1.16695 71.1526H4.99017L4.15526 72.3164H1.27333V77.5885H3.60724V75.4537H2.09213L2.92061 74.3004H4.8709V78.7488H1.15728C0.786565 78.7348 0.499662 78.6226 0.299797 78.4088V78.4123Z" fill="#1A2F6B"/>
<path d="M5.98964 78.4333C5.79622 78.2195 5.69629 77.932 5.69629 77.5745V70.781H6.93416V77.6025H7.89158V78.7558H6.79555C6.45384 78.7558 6.18306 78.6471 5.98964 78.4333Z" fill="#1A2F6B"/>
<path d="M12.4464 78.4333C12.2497 78.6471 11.979 78.7558 11.6373 78.7558H9.34526C9.00356 78.7558 8.72955 78.6471 8.52646 78.4333C8.32337 78.2194 8.22021 77.932 8.22021 77.5744V73.9849C8.22021 73.6274 8.31692 73.3399 8.51356 73.1261C8.70698 72.9123 8.97777 72.8036 9.31947 72.8036H11.6469C11.9886 72.8036 12.2594 72.9123 12.4528 73.1261C12.6463 73.3399 12.7462 73.6274 12.7462 73.9849V77.5744C12.7462 77.932 12.6463 78.2194 12.4496 78.4333H12.4464ZM9.46131 73.9534V77.599H11.5083V73.9534H9.46131Z" fill="#1A2F6B"/>
<path d="M15.4897 72.8001H16.8824C17.2241 72.8001 17.4948 72.9087 17.6883 73.1226C17.8817 73.3364 17.9816 73.6238 17.9816 73.9814V77.5709C17.9816 77.9285 17.8849 78.2159 17.6883 78.4297C17.4916 78.6436 17.2241 78.7522 16.8824 78.7522H13.5298V70.7775H14.7677V73.6764L15.4897 72.7966V72.8001ZM16.7437 77.6025V73.9569H14.7677V77.6025H16.7437Z" fill="#1A2F6B"/>
<path d="M21.1662 78.7522H19.7736C19.4319 78.7522 19.1611 78.6435 18.9677 78.4297C18.7742 78.2159 18.6743 77.9284 18.6743 77.5709V73.9814C18.6743 73.6238 18.771 73.3364 18.9677 73.1226C19.1611 72.9087 19.4319 72.8 19.7736 72.8H23.1358V78.7522H21.8979V77.8654L21.1662 78.7522ZM21.8979 73.9533H19.9122V77.5989H21.8979V73.9533Z" fill="#1A2F6B"/>
<path d="M24.2548 78.4333C24.0614 78.2195 23.9614 77.932 23.9614 77.5745V70.781H25.1993V77.6025H26.1567V78.7558H25.0607C24.719 78.7558 24.4482 78.6471 24.2548 78.4333Z" fill="#1A2F6B"/>
<path d="M31.4628 75.5413H28.3101V72.453C28.3101 72.0499 28.4035 71.7344 28.5937 71.5031C28.7839 71.2717 29.0579 71.1595 29.4158 71.1595H33.023L32.1011 72.3233H29.5737V74.3845H32.7264V77.4728C32.7264 77.8759 32.6329 78.1914 32.4428 78.4192C32.2526 78.6471 31.9786 78.7592 31.6207 78.7592H28.2939V77.5955H31.466V75.5448L31.4628 75.5413Z" fill="#1A2F6B"/>
<path d="M33.8253 73.1191C34.0155 72.9087 34.283 72.8036 34.628 72.8036H39.8825V78.7558H38.7574V73.9569H37.2842V78.7558H36.1592V73.9569H34.686V78.7558H33.5352V73.9849C33.5352 73.6203 33.6319 73.3329 33.8221 73.1191H33.8253Z" fill="#1A2F6B"/>
<path d="M43.1095 78.7522H41.7169C41.3752 78.7522 41.1044 78.6435 40.911 78.4297C40.7176 78.2159 40.6177 77.9284 40.6177 77.5709V73.9814C40.6177 73.6238 40.7144 73.3364 40.911 73.1226C41.1044 72.9087 41.3752 72.8 41.7169 72.8H45.0792V78.7522H43.8413V77.8654L43.1095 78.7522ZM43.8413 73.9533H41.8555V77.5989H43.8413V73.9533Z" fill="#1A2F6B"/>
<path d="M46.146 73.1085C46.3362 72.9052 46.6005 72.8 46.9422 72.8H49.6178L48.712 73.9533H47.1002V78.7522H45.8623V73.9533C45.8623 73.5958 45.9558 73.3118 46.146 73.1085Z" fill="#1A2F6B"/>
<path d="M50.5337 71.156H51.7716V72.8H53.68L52.7644 73.9533H51.7716V77.5989H53.1384V78.7522H51.6297C51.288 78.7522 51.0172 78.6435 50.8238 78.4297C50.6304 78.2159 50.5305 77.9284 50.5305 77.5709V73.9533H49.5537V72.8H50.5305V71.156H50.5337Z" fill="#1A2F6B"/>
<path d="M58.9926 75.5413H55.8398V72.453C55.8398 72.0499 55.9333 71.7344 56.1235 71.5031C56.3137 71.2717 56.5877 71.1595 56.9456 71.1595H60.5528L59.6308 72.3233H57.1035V74.3845H60.2562V77.4728C60.2562 77.8759 60.1627 78.1914 59.9725 78.4192C59.7823 78.6471 59.5083 78.7592 59.1505 78.7592H55.8237V77.5955H58.9958V75.5448L58.9926 75.5413Z" fill="#1A2F6B"/>
<path d="M65.2462 78.4333C65.0496 78.6471 64.7788 78.7558 64.4371 78.7558H62.1451C61.8034 78.7558 61.5294 78.6471 61.3263 78.4333C61.1232 78.2194 61.02 77.932 61.02 77.5744V73.9849C61.02 73.6274 61.1167 73.3399 61.3134 73.1261C61.5068 72.9123 61.7776 72.8036 62.1193 72.8036H64.4467C64.7884 72.8036 65.0592 72.9123 65.2526 73.1261C65.4461 73.3399 65.546 73.6274 65.546 73.9849V77.5744C65.546 77.932 65.4461 78.2194 65.2494 78.4333H65.2462ZM62.2579 73.9534V77.599H64.3049V73.9534H62.2579Z" fill="#1A2F6B"/>
<path d="M66.6161 78.4333C66.4227 78.2195 66.3228 77.932 66.3228 77.5745V70.781H67.5606V77.6025H68.518V78.7558H67.422C67.0803 78.7558 66.8095 78.6471 66.6161 78.4333Z" fill="#1A2F6B"/>
<path d="M72.0738 77.6025V72.8036H73.3117V78.7558H69.9913C69.6496 78.7558 69.3789 78.6471 69.1854 78.4333C68.992 78.2194 68.8921 77.932 68.8921 77.5744V72.8036H70.13V77.6025H72.0738Z" fill="#1A2F6B"/>
<path d="M74.7236 71.156H75.9615V72.8H77.8699L76.9544 73.9533H75.9615V77.5989H77.3283V78.7522H75.8197C75.478 78.7522 75.2072 78.6435 75.0138 78.4297C74.8203 78.2159 74.7204 77.9284 74.7204 77.5709V73.9533H73.7437V72.8H74.7204V71.156H74.7236Z" fill="#1A2F6B"/>
<path d="M78.4243 70.781H79.6622V72.1025H78.4243V70.781ZM78.4243 78.7523V72.8001H79.6622V78.7523H78.4243Z" fill="#1A2F6B"/>
<path d="M84.8009 78.4333C84.6042 78.6471 84.3335 78.7558 83.9917 78.7558H81.6998C81.3581 78.7558 81.084 78.6471 80.881 78.4333C80.6779 78.2194 80.5747 77.932 80.5747 77.5744V73.9849C80.5747 73.6274 80.6714 73.3399 80.8681 73.1261C81.0615 72.9123 81.3323 72.8036 81.674 72.8036H84.0014C84.3431 72.8036 84.6139 72.9123 84.8073 73.1261C85.0007 73.3399 85.1007 73.6274 85.1007 73.9849V77.5744C85.1007 77.932 85.0008 78.2194 84.8041 78.4333H84.8009ZM81.8126 73.9534V77.599H83.8596V73.9534H81.8126Z" fill="#1A2F6B"/>
<path d="M86.1288 73.1226C86.3222 72.9087 86.593 72.8 86.9347 72.8H90.255V78.7522H89.0172V73.9533H87.0733V78.7522H85.8354V73.9814C85.8354 73.6238 85.9322 73.3364 86.1288 73.1226Z" fill="#1A2F6B"/>
<path d="M92.0507 72.8001H95.4387L94.5232 73.9043H92.2667V75.2259H95.0809V77.5675C95.0809 77.939 94.9971 78.23 94.8295 78.4368C94.6619 78.6436 94.4072 78.7488 94.0719 78.7488H90.9966V77.6446H93.8527V76.302H91.0385V73.8833C91.0385 73.1577 91.3737 72.7966 92.0475 72.7966L92.0507 72.8001Z" fill="#1A2F6B"/>
<path d="M99.7422 70.781H100.98V72.1025H99.7422V70.781ZM99.7422 78.7523V72.8001H100.98V78.7523H99.7422Z" fill="#1A2F6B"/>
<path d="M102.228 73.1226C102.421 72.9087 102.692 72.8 103.034 72.8H106.354V78.7522H105.116V73.9533H103.172V78.7522H101.935V73.9814C101.935 73.6238 102.031 73.3364 102.228 73.1226Z" fill="#1A2F6B"/>
<path d="M110.883 78.7522H108.192C107.85 78.7522 107.579 78.6435 107.386 78.4297C107.192 78.2159 107.092 77.9284 107.092 77.5709V73.9814C107.092 73.6238 107.189 73.3364 107.386 73.1226C107.579 72.9087 107.85 72.8 108.192 72.8H111.231L110.316 73.9533H108.33V77.5989H110.883V78.7522Z" fill="#1A2F6B"/>
<path d="M53.957 9.68191L73.0151 30.4058L72.9893 29.575V22.757V19.7108V16.4473V15.9811L58.425 0H38.2837V17.1063L60.1818 40.922L58.0414 43.9261L38.1226 22.2663L38.2837 33.5607V35.9233V38.973V42.1174V43.169L52.9803 59.1536H53.1221H61.3133H72.9893V57.9407V56.1039V35.6709L51.4329 12.2303L53.957 9.68191Z" fill="#1A2F6B"/>
<path d="M92.1733 9.68191L111.231 30.4058L111.206 29.575V22.757V19.7108V16.4473V15.9811L96.6413 0H76.5V17.1063L98.3981 40.922L96.2544 43.9261L76.3389 22.2663L76.5 33.5607V35.9233V38.973V42.1174V43.169L91.1966 59.1536H91.3384H99.5296H111.206V57.9407V56.1039V35.6709L89.6492 12.2303L92.1733 9.68191Z" fill="#1A2F6B"/>
<path d="M34.7056 28.3692V15.9811L20.2702 0.143721V0H20.1412H5.58655H0V43.169L14.6965 59.1536H34.7056V56.1039V35.8812V32.6247V32.3653H26.3886H23.7323H19.6802H19.316V40.582L30.0281 55.0838H15.6346V5.70328H19.316V28.3692H19.6802H34.7056Z" fill="#1A2F6B"/>
</svg>
