<svg width="112" height="81" viewBox="0 0 112 81" fill="none" xmlns="http://www.w3.org/2000/svg">
<g clip-path="url(#clip0_10_2267)">
<path d="M96.0125 77.1012H97.2503V78.4434L96.5347 80.0204H96.0125V77.1012Z" fill="white"/>
<path d="M0.299797 78.4122C0.0999324 78.1984 0 77.8969 0 77.5043V72.4215C0 72.0254 0.103156 71.7134 0.309468 71.4891C0.51578 71.2647 0.802683 71.1526 1.16695 71.1526H4.99017L4.15526 72.3164H1.27333V77.5885H3.60724V75.4537H2.09213L2.92061 74.3004H4.8709V78.7488H1.15728C0.786565 78.7347 0.499662 78.6226 0.299797 78.4087V78.4122Z" fill="white"/>
<path d="M5.98952 78.4333C5.7961 78.2194 5.69617 77.932 5.69617 77.5744V70.781H6.93404V77.6025H7.89146V78.7558H6.79542C6.45372 78.7558 6.18293 78.6471 5.98952 78.4333Z" fill="white"/>
<path d="M12.4464 78.4333C12.2497 78.6471 11.979 78.7558 11.6373 78.7558H9.34526C9.00356 78.7558 8.72955 78.6471 8.52646 78.4333C8.32337 78.2194 8.22021 77.932 8.22021 77.5744V73.9849C8.22021 73.6274 8.31692 73.3399 8.51356 73.1261C8.70698 72.9123 8.97777 72.8036 9.31947 72.8036H11.6469C11.9886 72.8036 12.2594 72.9123 12.4528 73.1261C12.6463 73.3399 12.7462 73.6274 12.7462 73.9849V77.5744C12.7462 77.932 12.6463 78.2194 12.4496 78.4333H12.4464ZM9.46131 73.9534V77.599H11.5083V73.9534H9.46131Z" fill="white"/>
<path d="M15.4895 72.8001H16.8821C17.2238 72.8001 17.4946 72.9087 17.688 73.1226C17.8814 73.3364 17.9814 73.6238 17.9814 73.9814V77.5709C17.9814 77.9285 17.8847 78.2159 17.688 78.4297C17.4914 78.6436 17.2238 78.7522 16.8821 78.7522H13.5295V70.7775H14.7674V73.6764L15.4895 72.7966V72.8001ZM16.7435 77.6025V73.9569H14.7674V77.6025H16.7435Z" fill="white"/>
<path d="M21.1663 78.7522H19.7737C19.432 78.7522 19.1612 78.6436 18.9678 78.4298C18.7744 78.2159 18.6744 77.9285 18.6744 77.5709V73.9814C18.6744 73.6239 18.7711 73.3364 18.9678 73.1226C19.1612 72.9088 19.432 72.8001 19.7737 72.8001H23.1359V78.7522H21.8981V77.8654L21.1663 78.7522ZM21.8981 73.9534H19.9123V77.599H21.8981V73.9534Z" fill="white"/>
<path d="M24.2545 78.4333C24.0611 78.2194 23.9612 77.932 23.9612 77.5744V70.781H25.1991V77.6025H26.1565V78.7558H25.0604C24.7187 78.7558 24.4479 78.6471 24.2545 78.4333Z" fill="white"/>
<path d="M31.4626 75.5413H28.3099V72.453C28.3099 72.0499 28.4034 71.7344 28.5936 71.5031C28.7838 71.2717 29.0578 71.1595 29.4156 71.1595H33.0229L32.1009 72.3233H29.5736V74.3845H32.7263V77.4728C32.7263 77.8759 32.6328 78.1914 32.4426 78.4192C32.2524 78.6471 31.9784 78.7592 31.6206 78.7592H28.2938V77.5955H31.4659V75.5448L31.4626 75.5413Z" fill="white"/>
<path d="M33.8255 73.1191C34.0157 72.9087 34.2833 72.8036 34.6282 72.8036H39.8827V78.7558H38.7577V73.9569H37.2845V78.7558H36.1594V73.9569H34.6862V78.7558H33.5354V73.9849C33.5354 73.6203 33.6321 73.3329 33.8223 73.1191H33.8255Z" fill="white"/>
<path d="M43.1095 78.7522H41.7169C41.3752 78.7522 41.1044 78.6436 40.911 78.4298C40.7176 78.2159 40.6177 77.9285 40.6177 77.5709V73.9814C40.6177 73.6239 40.7144 73.3364 40.911 73.1226C41.1044 72.9088 41.3752 72.8001 41.7169 72.8001H45.0792V78.7522H43.8413V77.8654L43.1095 78.7522ZM43.8413 73.9534H41.8555V77.599H43.8413V73.9534Z" fill="white"/>
<path d="M46.1462 73.1086C46.3364 72.9052 46.6008 72.8001 46.9425 72.8001H49.6181L48.7122 73.9534H47.1004V78.7522H45.8625V73.9534C45.8625 73.5958 45.956 73.3119 46.1462 73.1086Z" fill="white"/>
<path d="M50.5336 71.1561H51.7714V72.8001H53.6798L52.7643 73.9534H51.7714V77.599H53.1383V78.7523H51.6296C51.2879 78.7523 51.0171 78.6436 50.8237 78.4298C50.6303 78.2159 50.5303 77.9285 50.5303 77.5709V73.9534H49.5536V72.8001H50.5303V71.1561H50.5336Z" fill="white"/>
<path d="M58.9923 75.5413H55.8396V72.453C55.8396 72.0499 55.9331 71.7344 56.1233 71.5031C56.3135 71.2717 56.5875 71.1595 56.9453 71.1595H60.5525L59.6306 72.3233H57.1033V74.3845H60.256V77.4728C60.256 77.8759 60.1625 78.1914 59.9723 78.4192C59.7821 78.6471 59.5081 78.7592 59.1503 78.7592H55.8235V77.5955H58.9955V75.5448L58.9923 75.5413Z" fill="white"/>
<path d="M65.2462 78.4333C65.0496 78.6471 64.7788 78.7558 64.4371 78.7558H62.1451C61.8034 78.7558 61.5294 78.6471 61.3263 78.4333C61.1232 78.2194 61.02 77.932 61.02 77.5744V73.9849C61.02 73.6274 61.1167 73.3399 61.3134 73.1261C61.5068 72.9123 61.7776 72.8036 62.1193 72.8036H64.4467C64.7884 72.8036 65.0592 72.9123 65.2526 73.1261C65.4461 73.3399 65.546 73.6274 65.546 73.9849V77.5744C65.546 77.932 65.4461 78.2194 65.2494 78.4333H65.2462ZM62.2579 73.9534V77.599H64.3049V73.9534H62.2579Z" fill="white"/>
<path d="M66.6162 78.4333C66.4228 78.2194 66.3229 77.932 66.3229 77.5744V70.781H67.5607V77.6025H68.5182V78.7558H67.4221C67.0804 78.7558 66.8096 78.6471 66.6162 78.4333Z" fill="white"/>
<path d="M72.0738 77.6025V72.8036H73.3117V78.7558H69.9913C69.6496 78.7558 69.3789 78.6471 69.1854 78.4333C68.992 78.2194 68.8921 77.932 68.8921 77.5744V72.8036H70.13V77.6025H72.0738Z" fill="white"/>
<path d="M74.7236 71.1561H75.9615V72.8001H77.8699L76.9544 73.9534H75.9615V77.599H77.3283V78.7523H75.8197C75.478 78.7523 75.2072 78.6436 75.0138 78.4298C74.8203 78.2159 74.7204 77.9285 74.7204 77.5709V73.9534H73.7437V72.8001H74.7204V71.1561H74.7236Z" fill="white"/>
<path d="M78.4244 70.781H79.6623V72.1025H78.4244V70.781ZM78.4244 78.7523V72.8001H79.6623V78.7523H78.4244Z" fill="white"/>
<path d="M84.8008 78.4333C84.6041 78.6471 84.3333 78.7558 83.9916 78.7558H81.6996C81.3579 78.7558 81.0839 78.6471 80.8808 78.4333C80.6777 78.2194 80.5746 77.932 80.5746 77.5744V73.9849C80.5746 73.6274 80.6713 73.3399 80.8679 73.1261C81.0614 72.9123 81.3321 72.8036 81.6738 72.8036H84.0013C84.343 72.8036 84.6138 72.9123 84.8072 73.1261C85.0006 73.3399 85.1006 73.6274 85.1006 73.9849V77.5744C85.1006 77.932 85.0006 78.2194 84.804 78.4333H84.8008ZM81.8125 73.9534V77.599H83.8595V73.9534H81.8125Z" fill="white"/>
<path d="M86.1289 73.1226C86.3223 72.9088 86.5931 72.8001 86.9348 72.8001H90.2552V78.7522H89.0173V73.9534H87.0734V78.7522H85.8356V73.9814C85.8356 73.6239 85.9323 73.3364 86.1289 73.1226Z" fill="white"/>
<path d="M92.0507 72.8001H95.4387L94.5232 73.9043H92.2667V75.2258H95.0809V77.5674C95.0809 77.939 94.9971 78.2299 94.8295 78.4368C94.6619 78.6436 94.4072 78.7487 94.0719 78.7487H90.9966V77.6445H93.8527V76.302H91.0385V73.8833C91.0385 73.1576 91.3737 72.7966 92.0475 72.7966L92.0507 72.8001Z" fill="white"/>
<path d="M99.7422 70.781H100.98V72.1025H99.7422V70.781ZM99.7422 78.7523V72.8001H100.98V78.7523H99.7422Z" fill="white"/>
<path d="M102.228 73.1226C102.421 72.9088 102.692 72.8001 103.034 72.8001H106.354V78.7522H105.116V73.9534H103.172V78.7522H101.934V73.9814C101.934 73.6239 102.031 73.3364 102.228 73.1226Z" fill="white"/>
<path d="M110.883 78.7522H108.191C107.85 78.7522 107.579 78.6436 107.386 78.4298C107.192 78.2159 107.092 77.9285 107.092 77.5709V73.9814C107.092 73.6239 107.189 73.3364 107.386 73.1226C107.579 72.9088 107.85 72.8001 108.191 72.8001H111.231L110.316 73.9534H108.33V77.599H110.883V78.7522Z" fill="white"/>
<path d="M53.957 9.68191L73.0151 30.4058L72.9893 29.575V22.757V19.7108V16.4473V15.9811L58.425 0H38.2837V17.1063L60.1818 40.922L58.0414 43.9261L38.1226 22.2663L38.2837 33.5607V35.9233V38.973V42.1174V43.169L52.9803 59.1536H53.1221H61.3133H72.9893V57.9407V56.1039V35.6709L51.4329 12.2303L53.957 9.68191Z" fill="white"/>
<path d="M92.1732 9.68191L111.231 30.4058L111.205 29.575V22.757V19.7108V16.4473V15.9811L96.6412 0H76.4999V17.1063L98.398 40.922L96.2543 43.9261L76.3387 22.2663L76.4999 33.5607V35.9233V38.973V42.1174V43.169L91.1964 59.1536H91.3383H99.5295H111.205V57.9407V56.1039V35.6709L89.6491 12.2303L92.1732 9.68191Z" fill="white"/>
<path d="M34.7056 28.3692V15.9811L20.2702 0.143721V0H20.1412H5.58655H0V43.169L14.6965 59.1536H34.7056V56.1039V35.8812V32.6247V32.3653H26.3886H23.7323H19.6802H19.316V40.582L30.0281 55.0838H15.6346V5.70328H19.316V28.3692H19.6802H34.7056Z" fill="white"/>
</g>
<defs>
<clipPath id="clip0_10_2267">
<rect width="111.231" height="80.0212" fill="white"/>
</clipPath>
</defs>
</svg>
