<svg width="112" height="81" viewBox="0 0 112 81" fill="none" xmlns="http://www.w3.org/2000/svg">
<g clip-path="url(#clip0_16_274)">
<path d="M96.0127 77.1011H97.2506V78.4433L96.5349 80.0203H96.0127V77.1011Z" fill="black"/>
<path d="M0.299797 78.412C0.0999324 78.1982 0 77.8967 0 77.5041V72.4213C0 72.0252 0.103156 71.7132 0.309468 71.4889C0.51578 71.2645 0.802683 71.1523 1.16695 71.1523H4.99017L4.15526 72.3161H1.27333V77.5883H3.60724V75.4535H2.09213L2.92061 74.3002H4.8709V78.7485H1.15728C0.786565 78.7345 0.499662 78.6223 0.299797 78.4085V78.412Z" fill="black"/>
<path d="M5.98964 78.433C5.79622 78.2192 5.69629 77.9318 5.69629 77.5742V70.7808H6.93416V77.6023H7.89158V78.7555H6.79555C6.45384 78.7555 6.18306 78.6469 5.98964 78.433Z" fill="black"/>
<path d="M12.4464 78.4334C12.2497 78.6472 11.979 78.7559 11.6373 78.7559H9.34526C9.00356 78.7559 8.72955 78.6472 8.52646 78.4334C8.32337 78.2195 8.22021 77.9321 8.22021 77.5746V73.985C8.22021 73.6275 8.31692 73.34 8.51356 73.1262C8.70698 72.9124 8.97777 72.8037 9.31947 72.8037H11.6469C11.9886 72.8037 12.2594 72.9124 12.4528 73.1262C12.6463 73.34 12.7462 73.6275 12.7462 73.985V77.5746C12.7462 77.9321 12.6463 78.2195 12.4496 78.4334H12.4464ZM9.46131 73.9535V77.5991H11.5083V73.9535H9.46131Z" fill="black"/>
<path d="M15.4897 72.8H16.8824C17.2241 72.8 17.4948 72.9086 17.6883 73.1225C17.8817 73.3363 17.9816 73.6237 17.9816 73.9813V77.5708C17.9816 77.9283 17.8849 78.2158 17.6883 78.4296C17.4916 78.6435 17.2241 78.7521 16.8824 78.7521H13.5298V70.7773H14.7677V73.6763L15.4897 72.7965V72.8ZM16.7437 77.6024V73.9567H14.7677V77.6024H16.7437Z" fill="black"/>
<path d="M21.1662 78.7525H19.7736C19.4319 78.7525 19.1611 78.6438 18.9677 78.43C18.7742 78.2161 18.6743 77.9287 18.6743 77.5711V73.9816C18.6743 73.6241 18.771 73.3366 18.9677 73.1228C19.1611 72.909 19.4319 72.8003 19.7736 72.8003H23.1358V78.7525H21.8979V77.8656L21.1662 78.7525ZM21.8979 73.9536H19.9122V77.5992H21.8979V73.9536Z" fill="black"/>
<path d="M24.2548 78.433C24.0614 78.2192 23.9614 77.9318 23.9614 77.5742V70.7808H25.1993V77.6023H26.1567V78.7555H25.0607C24.719 78.7555 24.4482 78.6469 24.2548 78.433Z" fill="black"/>
<path d="M31.4628 75.5414H28.3101V72.4532C28.3101 72.05 28.4035 71.7346 28.5937 71.5032C28.7839 71.2718 29.0579 71.1597 29.4158 71.1597H33.023L32.1011 72.3235H29.5737V74.3846H32.7264V77.4729C32.7264 77.876 32.6329 78.1915 32.4428 78.4193C32.2526 78.6472 31.9786 78.7594 31.6207 78.7594H28.2939V77.5956H31.466V75.5449L31.4628 75.5414Z" fill="black"/>
<path d="M33.8253 73.1192C34.0155 72.9089 34.283 72.8037 34.628 72.8037H39.8825V78.7559H38.7574V73.957H37.2842V78.7559H36.1592V73.957H34.686V78.7559H33.5352V73.985C33.5352 73.6205 33.6319 73.333 33.8221 73.1192H33.8253Z" fill="black"/>
<path d="M43.1095 78.7525H41.7169C41.3752 78.7525 41.1044 78.6438 40.911 78.43C40.7176 78.2161 40.6177 77.9287 40.6177 77.5711V73.9816C40.6177 73.6241 40.7144 73.3366 40.911 73.1228C41.1044 72.909 41.3752 72.8003 41.7169 72.8003H45.0792V78.7525H43.8413V77.8656L43.1095 78.7525ZM43.8413 73.9536H41.8555V77.5992H43.8413V73.9536Z" fill="black"/>
<path d="M46.146 73.1088C46.3362 72.9055 46.6005 72.8003 46.9422 72.8003H49.6178L48.712 73.9536H47.1002V78.7525H45.8623V73.9536C45.8623 73.596 45.9558 73.3121 46.146 73.1088Z" fill="black"/>
<path d="M50.5337 71.1562H51.7716V72.8003H53.68L52.7644 73.9536H51.7716V77.5992H53.1384V78.7524H51.6297C51.288 78.7524 51.0172 78.6438 50.8238 78.4299C50.6304 78.2161 50.5305 77.9287 50.5305 77.5711V73.9536H49.5537V72.8003H50.5305V71.1562H50.5337Z" fill="black"/>
<path d="M58.9926 75.5414H55.8398V72.4532C55.8398 72.05 55.9333 71.7346 56.1235 71.5032C56.3137 71.2718 56.5877 71.1597 56.9456 71.1597H60.5528L59.6308 72.3235H57.1035V74.3846H60.2562V77.4729C60.2562 77.876 60.1627 78.1915 59.9725 78.4193C59.7823 78.6472 59.5083 78.7594 59.1505 78.7594H55.8237V77.5956H58.9958V75.5449L58.9926 75.5414Z" fill="black"/>
<path d="M65.2462 78.4334C65.0496 78.6472 64.7788 78.7559 64.4371 78.7559H62.1451C61.8034 78.7559 61.5294 78.6472 61.3263 78.4334C61.1232 78.2195 61.02 77.9321 61.02 77.5746V73.985C61.02 73.6275 61.1167 73.34 61.3134 73.1262C61.5068 72.9124 61.7776 72.8037 62.1193 72.8037H64.4467C64.7884 72.8037 65.0592 72.9124 65.2526 73.1262C65.4461 73.34 65.546 73.6275 65.546 73.985V77.5746C65.546 77.9321 65.4461 78.2195 65.2494 78.4334H65.2462ZM62.2579 73.9535V77.5991H64.3049V73.9535H62.2579Z" fill="black"/>
<path d="M66.6161 78.433C66.4227 78.2192 66.3228 77.9318 66.3228 77.5742V70.7808H67.5606V77.6023H68.518V78.7555H67.422C67.0803 78.7555 66.8095 78.6469 66.6161 78.433Z" fill="black"/>
<path d="M72.0738 77.6026V72.8037H73.3117V78.7559H69.9913C69.6496 78.7559 69.3789 78.6472 69.1854 78.4334C68.992 78.2195 68.8921 77.9321 68.8921 77.5746V72.8037H70.13V77.6026H72.0738Z" fill="black"/>
<path d="M74.7236 71.1562H75.9615V72.8003H77.8699L76.9544 73.9536H75.9615V77.5992H77.3283V78.7524H75.8197C75.478 78.7524 75.2072 78.6438 75.0138 78.4299C74.8203 78.2161 74.7204 77.9287 74.7204 77.5711V73.9536H73.7437V72.8003H74.7204V71.1562H74.7236Z" fill="black"/>
<path d="M78.4243 70.7808H79.6622V72.1023H78.4243V70.7808ZM78.4243 78.752V72.7999H79.6622V78.752H78.4243Z" fill="black"/>
<path d="M84.8009 78.4334C84.6042 78.6472 84.3335 78.7559 83.9917 78.7559H81.6998C81.3581 78.7559 81.084 78.6472 80.881 78.4334C80.6779 78.2195 80.5747 77.9321 80.5747 77.5746V73.985C80.5747 73.6275 80.6714 73.34 80.8681 73.1262C81.0615 72.9124 81.3323 72.8037 81.674 72.8037H84.0014C84.3431 72.8037 84.6139 72.9124 84.8073 73.1262C85.0007 73.34 85.1007 73.6275 85.1007 73.985V77.5746C85.1007 77.9321 85.0008 78.2195 84.8041 78.4334H84.8009ZM81.8126 73.9535V77.5991H83.8596V73.9535H81.8126Z" fill="black"/>
<path d="M86.1288 73.1228C86.3222 72.909 86.593 72.8003 86.9347 72.8003H90.255V78.7525H89.0172V73.9536H87.0733V78.7525H85.8354V73.9816C85.8354 73.6241 85.9322 73.3366 86.1288 73.1228Z" fill="black"/>
<path d="M92.0507 72.7999H95.4387L94.5232 73.9041H92.2667V75.2256H95.0809V77.5672C95.0809 77.9388 94.9971 78.2298 94.8295 78.4366C94.6619 78.6434 94.4072 78.7485 94.0719 78.7485H90.9966V77.6444H93.8527V76.3018H91.0385V73.8831C91.0385 73.1574 91.3737 72.7964 92.0475 72.7964L92.0507 72.7999Z" fill="black"/>
<path d="M99.7422 70.7808H100.98V72.1023H99.7422V70.7808ZM99.7422 78.752V72.7999H100.98V78.752H99.7422Z" fill="black"/>
<path d="M102.227 73.1228C102.421 72.909 102.692 72.8003 103.033 72.8003H106.354V78.7525H105.116V73.9536H103.172V78.7525H101.934V73.9816C101.934 73.6241 102.031 73.3366 102.227 73.1228Z" fill="black"/>
<path d="M110.883 78.7525H108.192C107.85 78.7525 107.579 78.6438 107.386 78.43C107.192 78.2161 107.092 77.9287 107.092 77.5711V73.9816C107.092 73.6241 107.189 73.3366 107.386 73.1228C107.579 72.909 107.85 72.8003 108.192 72.8003H111.231L110.316 73.9536H108.33V77.5992H110.883V78.7525Z" fill="black"/>
<path d="M53.957 9.68191L73.0151 30.4058L72.9893 29.575V22.757V19.7108V16.4473V15.9811L58.425 0H38.2837V17.1063L60.1818 40.922L58.0414 43.9261L38.1226 22.2663L38.2837 33.5607V35.9233V38.973V42.1174V43.169L52.9803 59.1536H53.1221H61.3133H72.9893V57.9407V56.1039V35.6709L51.4329 12.2303L53.957 9.68191Z" fill="black"/>
<path d="M92.1733 9.68191L111.231 30.4058L111.206 29.575V22.757V19.7108V16.4473V15.9811L96.6413 0H76.5V17.1063L98.3981 40.922L96.2544 43.9261L76.3389 22.2663L76.5 33.5607V35.9233V38.973V42.1174V43.169L91.1966 59.1536H91.3384H99.5296H111.206V57.9407V56.1039V35.6709L89.6492 12.2303L92.1733 9.68191Z" fill="black"/>
<path d="M34.7056 28.3692V15.9811L20.2702 0.143721V0H20.1412H5.58655H0V43.169L14.6965 59.1536H34.7056V56.1039V35.8812V32.6247V32.3653H26.3886H23.7323H19.6802H19.316V40.582L30.0281 55.0838H15.6346V5.70328H19.316V28.3692H19.6802H34.7056Z" fill="black"/>
</g>
<defs>
<clipPath id="clip0_16_274">
<rect width="111.231" height="80.0212" fill="white"/>
</clipPath>
</defs>
</svg>
